<svg version="1.1" id="Layer_1" xmlns="http://www.w3.org/2000/svg" xmlns:xlink="http://www.w3.org/1999/xlink" x="0px" y="0px"
	 width="100%" viewBox="0 0 400 400" xml:space="preserve">
<path fill="#6F4E37" opacity="1.000000" stroke="none" 
	d="
M56.020271,202.974548 
	C53.023754,200.105911 50.278557,197.487671 47.140045,194.494308 
	C53.114388,188.342682 58.603718,182.583633 64.207695,176.938370 
	C90.843727,150.106171 117.213463,122.999619 144.288055,96.616806 
	C158.605637,82.665047 172.444656,68.265236 186.504242,54.073994 
	C189.667435,50.881176 191.690048,50.714935 194.945694,54.049454 
	C204.480316,63.815041 213.783371,73.841156 224.195435,82.708481 
	C227.821701,85.796761 227.653152,87.968529 224.172852,91.458702 
	C179.479248,136.279129 134.960220,181.273651 90.395737,226.222839 
	C89.457573,227.169083 88.432663,228.039658 87.573624,229.051941 
	C85.440102,231.566025 83.618042,231.247757 81.409950,228.950546 
	C73.101662,220.306946 64.662033,211.789597 56.020271,202.974548 
z"/>
<path fill="#6F4E37" opacity="1.000000" stroke="none" 
	d="
M206.758636,140.240555 
	C204.176712,137.613541 201.880447,135.200226 199.494431,132.879181 
	C197.359512,130.802429 197.556549,129.050507 199.647537,126.973740 
	C209.922668,116.768639 220.159363,106.523376 230.289200,96.174431 
	C232.984039,93.421288 234.998810,93.415779 237.737762,96.185555 
	C261.263062,119.975616 284.824951,143.730301 308.512085,167.359055 
	C316.404663,175.232193 324.531189,182.861969 332.106354,191.060074 
	C334.949249,194.136749 335.092834,196.064163 331.887817,199.178238 
	C321.744507,209.033737 311.938171,219.238876 302.107758,229.411423 
	C299.893127,231.703125 298.288513,231.897888 295.938934,229.538895 
	C266.335297,199.816635 236.661270,170.164490 206.758636,140.240555 
z"/>
<path fill="#6F4E37" opacity="1.000000" stroke="none" 
	d="
M138.054138,189.054962 
	C156.111816,171.343353 173.922791,153.885193 190.391678,137.742538 
	C202.898209,149.407455 215.629654,161.282166 228.770508,173.538727 
	C221.089645,181.164047 213.732391,188.358551 206.495682,195.672333 
	C181.433090,221.001938 156.354111,246.316040 131.455322,271.805969 
	C128.599060,274.730072 127.028099,274.716217 124.301399,271.924774 
	C114.295044,261.680878 104.219795,251.496231 93.894707,241.576324 
	C90.454727,238.271332 90.959061,236.258987 94.078316,233.176636 
	C108.764061,218.664597 123.250107,203.950455 138.054138,189.054962 
z"/>
<path fill="#6F4E37" opacity="1.000000" stroke="none" 
	d="
M197.272186,226.699829 
	C215.113434,244.640564 232.707245,262.324432 250.185272,279.891907 
	C249.017838,283.289490 246.522141,284.855713 244.598236,286.832733 
	C228.696259,303.173859 212.652847,319.378143 196.840607,335.805176 
	C193.548294,339.225494 191.498657,339.301575 188.093719,335.818146 
	C171.336365,318.674530 154.405121,301.697296 137.310059,284.890411 
	C133.846024,281.484772 133.918106,279.434601 137.282639,276.076630 
	C153.658463,259.732849 169.834015,243.187912 186.029846,226.664597 
	C191.596619,220.985275 191.529602,220.919586 197.272186,226.699829 
z"/>
<path fill="#6F4E37" opacity="1.000000" stroke="none" 
	d="
M283.292084,227.707581 
	C293.359924,237.691360 293.422577,237.752579 283.884552,247.516663 
	C275.860596,255.730743 267.612518,263.725861 259.585144,271.936676 
	C257.220886,274.354919 255.514526,274.512177 253.023880,271.997742 
	C235.456253,254.262360 217.784180,236.630234 200.107117,219.003601 
	C198.037582,216.939972 197.225235,215.287201 199.786331,212.825195 
	C210.216141,202.798767 220.613235,192.731430 230.753464,182.414856 
	C233.753845,179.362289 235.454208,179.658035 238.288055,182.543289 
	C253.097580,197.621277 268.103790,212.506073 283.292084,227.707581 
z"/>
</svg>